SplineFontDB: 3.0
FontName: Courneuf-Regular
FullName: Courneuf Regular
FamilyName: Courneuf
Weight: Regular
Copyright: Created by Thomas jund @_sacripant with FontForge 2.0 (http://fontforge.sf.net)
Version: 001.001
ItalicAngle: 0
UnderlinePosition: -100
UnderlineWidth: 45
Ascent: 700
Descent: 200
sfntRevision: 0x00010000
LayerCount: 2
Layer: 0 0 "Back"  1
Layer: 1 0 "Fore"  0
XUID: [1021 853 1534986351 11821959]
FSType: 0
OS2Version: 4
OS2_WeightWidthSlopeOnly: 0
OS2_UseTypoMetrics: 1
CreationTime: 1358273878
ModificationTime: 1421181899
PfmFamily: 17
TTFWeight: 500
TTFWidth: 5
LineGap: 81
VLineGap: 0
Panose: 2 0 5 3 0 0 0 0 0 0
OS2TypoAscent: 700
OS2TypoAOffset: 0
OS2TypoDescent: -200
OS2TypoDOffset: 0
OS2TypoLinegap: 81
OS2WinAscent: 800
OS2WinAOffset: 0
OS2WinDescent: 200
OS2WinDOffset: 0
HheadAscent: 800
HheadAOffset: 0
HheadDescent: -200
HheadDOffset: 0
OS2SubXSize: 585
OS2SubYSize: 630
OS2SubXOff: 0
OS2SubYOff: 126
OS2SupXSize: 585
OS2SupYSize: 630
OS2SupXOff: 0
OS2SupYOff: 432
OS2StrikeYSize: 44
OS2StrikeYPos: 232
OS2Vendor: 'PfEd'
OS2CodePages: 00000001.00000000
OS2UnicodeRanges: 00000003.00002040.00000000.00000000
DEI: 91125

StartChar: .notdef
Encoding: 65536 -1 0
Width: 450
Flags: W
LayerCount: 2
Fore
SplineSet
45 0 m 1
 45 466 l 1
 405 466 l 1
 405 0 l 1
 45 0 l 1
90 45 m 1
 360 45 l 1
 360 421 l 1
 90 421 l 1
 90 45 l 1
EndSplineSet
EndChar

StartChar: exclam
Encoding: 33 33 2
Width: 300
Flags: W
LayerCount: 2
Fore
SplineSet
100 100 m 1
 200 100 l 1
 200 0 l 1
 100 0 l 1
 100 100 l 1
100 600 m 1
 200 600 l 1
 200 200 l 1
 100 200 l 1
 100 600 l 1
EndSplineSet
EndChar

StartChar: ampersand
Encoding: 38 38 3
Width: 600
Flags: W
LayerCount: 2
Fore
SplineSet
300 600 m 1
 300 500 l 1
 100 500 l 1
 100 600 l 1
 300 600 l 1
0 500 m 1
 100 500 l 1
 100 400 l 1
 0 400 l 1
 0 500 l 1
200 400 m 1
 200 300 l 1
 100 300 l 1
 100 400 l 1
 200 400 l 1
0 300 m 1
 100 300 l 1
 100 100 l 1
 0 100 l 1
 0 300 l 1
200 300 m 1
 500 300 l 1
 500 200 l 1
 400 200 l 1
 400 100 l 1
 300 100 l 1
 300 200 l 1
 200 200 l 1
 200 300 l 1
100 0 m 1
 100 100 l 1
 300 100 l 1
 300 0 l 1
 100 0 l 1
EndSplineSet
EndChar

StartChar: quotesingle
Encoding: 39 39 4
Width: 300
Flags: W
LayerCount: 2
Fore
SplineSet
100 600 m 1
 200 600 l 1
 200 400 l 1
 100 400 l 1
 100 600 l 1
0 300 m 1
 0 400 l 1
 100 400 l 1
 100 300 l 1
 0 300 l 1
EndSplineSet
EndChar

StartChar: parenleft
Encoding: 40 40 5
Width: 300
Flags: W
LayerCount: 2
Fore
SplineSet
0 0 m 1
 100 0 l 1
 100 525 l 1
 0 525 l 1
 0 0 l 1
200 -100 m 1
 200 0 l 1
 100 0 l 1
 100 -100 l 1
 200 -100 l 1
200 625 m 1
 100 625 l 1
 100 525 l 1
 200 525 l 1
 200 625 l 1
EndSplineSet
EndChar

StartChar: parenright
Encoding: 41 41 6
Width: 302
Flags: W
LayerCount: 2
Fore
SplineSet
200 0 m 1
 100 0 l 1
 100 525 l 1
 200 525 l 1
 200 0 l 1
0 -100 m 1
 0 0 l 1
 100 0 l 1
 100 -100 l 1
 0 -100 l 1
0 625 m 1
 100 625 l 1
 100 525 l 1
 0 525 l 1
 0 625 l 1
EndSplineSet
EndChar

StartChar: comma
Encoding: 44 44 7
Width: 300
Flags: W
LayerCount: 2
Fore
SplineSet
100 100 m 1
 200 100 l 1
 200 -100 l 1
 100 -100 l 1
 100 100 l 1
0 -200 m 1
 0 -100 l 1
 100 -100 l 1
 100 -200 l 1
 0 -200 l 1
EndSplineSet
EndChar

StartChar: hyphen
Encoding: 45 45 8
Width: 400
Flags: HWO
LayerCount: 2
Fore
SplineSet
0 300 m 1
 300 300 l 1
 300 200 l 1
 0 200 l 1
 0 300 l 1
EndSplineSet
EndChar

StartChar: period
Encoding: 46 46 9
Width: 300
Flags: W
LayerCount: 2
Fore
SplineSet
0 100 m 1
 100 100 l 1
 100 0 l 1
 0 0 l 1
 0 100 l 1
EndSplineSet
EndChar

StartChar: slash
Encoding: 47 47 10
Width: 400
Flags: W
LayerCount: 2
Fore
SplineSet
0 0 m 1
 0 200 l 1
 100 200 l 1
 100 0 l 1
 0 0 l 1
200 600 m 1
 300 600 l 1
 300 400 l 1
 200 400 l 1
 200 600 l 1
100 200 m 1
 100 400 l 1
 200 400 l 1
 200 200 l 1
 100 200 l 1
EndSplineSet
EndChar

StartChar: zero
Encoding: 48 48 11
Width: 500
Flags: W
LayerCount: 2
Fore
SplineSet
100 300 m 1
 200 300 l 1
 200 200 l 1
 100 200 l 1
 100 100 l 1
 0 100 l 1
 0 500 l 1
 100 500 l 1
 100 300 l 1
300 500 m 1
 400 500 l 1
 400 100 l 1
 300 100 l 1
 300 300 l 1
 200 300 l 1
 200 400 l 1
 300 400 l 1
 300 500 l 1
100 600 m 1
 300 600 l 1
 300 500 l 1
 100 500 l 1
 100 600 l 1
100 100 m 1
 300 100 l 1
 300 0 l 1
 100 0 l 1
 100 100 l 1
EndSplineSet
EndChar

StartChar: one
Encoding: 49 49 12
Width: 375
Flags: W
LayerCount: 2
Fore
SplineSet
200 100 m 1
 275 100 l 1
 275 0 l 1
 0 0 l 1
 0 100 l 1
 100 100 l 1
 100 500 l 1
 0 500 l 1
 0 600 l 1
 200 600 l 1
 200 100 l 1
EndSplineSet
EndChar

StartChar: two
Encoding: 50 50 13
Width: 400
Flags: W
LayerCount: 2
Fore
SplineSet
0 500 m 1
 100 500 l 1
 100 400 l 1
 0 400 l 1
 0 500 l 1
200 500 m 1
 300 500 l 1
 300 300 l 1
 200 300 l 1
 200 500 l 1
100 100 m 1
 300 100 l 1
 300 0 l 1
 0 0 l 1
 0 200 l 1
 100 200 l 1
 100 100 l 1
100 600 m 1
 200 600 l 1
 200 500 l 1
 100 500 l 1
 100 600 l 1
100 300 m 1
 200 300 l 1
 200 200 l 1
 100 200 l 1
 100 300 l 1
EndSplineSet
EndChar

StartChar: three
Encoding: 51 51 14
Width: 400
Flags: W
LayerCount: 2
Fore
SplineSet
0 500 m 1
 100 500 l 1
 100 400 l 1
 0 400 l 1
 0 500 l 1
200 200 m 1
 300 200 l 1
 300 100 l 1
 200 100 l 1
 200 200 l 1
100 300 m 1
 200 300 l 1
 200 200 l 1
 100 200 l 1
 100 300 l 1
100 600 m 1
 200 600 l 1
 200 500 l 1
 100 500 l 1
 100 600 l 1
200 500 m 1
 300 500 l 1
 300 300 l 1
 200 300 l 1
 200 500 l 1
0 100 m 1
 200 100 l 1
 200 0 l 1
 0 0 l 1
 0 100 l 1
EndSplineSet
EndChar

StartChar: four
Encoding: 52 52 15
Width: 500
Flags: W
LayerCount: 2
Fore
SplineSet
400 200 m 1
 300 200 l 1
 300 100 l 1
 400 100 l 1
 400 0 l 1
 100 0 l 1
 100 100 l 1
 200 100 l 1
 200 200 l 1
 0 200 l 1
 0 400 l 1
 100 400 l 1
 100 300 l 1
 200 300 l 1
 200 400 l 1
 100 400 l 1
 100 500 l 1
 200 500 l 1
 200 600 l 1
 300 600 l 1
 300 300 l 1
 400 300 l 1
 400 200 l 1
EndSplineSet
EndChar

StartChar: five
Encoding: 53 53 16
Width: 400
Flags: W
LayerCount: 2
Fore
SplineSet
200 300 m 1
 300 300 l 1
 300 100 l 1
 200 100 l 1
 200 300 l 1
100 100 m 1
 200 100 l 1
 200 0 l 1
 100 0 l 1
 100 100 l 1
300 500 m 1
 100 500 l 1
 100 400 l 1
 200 400 l 1
 200 300 l 1
 0 300 l 1
 0 600 l 1
 300 600 l 1
 300 500 l 1
0 200 m 1
 100 200 l 1
 100 100 l 1
 0 100 l 1
 0 200 l 1
EndSplineSet
EndChar

StartChar: six
Encoding: 54 54 17
Width: 400
Flags: W
LayerCount: 2
Fore
SplineSet
100 600 m 1
 300 600 l 1
 300 500 l 1
 100 500 l 1
 100 600 l 1
100 400 m 1
 200 400 l 1
 200 300 l 1
 100 300 l 1
 100 100 l 1
 0 100 l 1
 0 500 l 1
 100 500 l 1
 100 400 l 1
200 300 m 1
 300 300 l 1
 300 100 l 1
 200 100 l 1
 200 300 l 1
100 100 m 1
 200 100 l 1
 200 0 l 1
 100 0 l 1
 100 100 l 1
EndSplineSet
EndChar

StartChar: seven
Encoding: 55 55 18
Width: 400
Flags: W
LayerCount: 2
Fore
SplineSet
100 300 m 1
 200 300 l 1
 200 0 l 1
 100 0 l 1
 100 300 l 1
0 600 m 1
 300 600 l 1
 300 300 l 1
 200 300 l 1
 200 500 l 1
 100 500 l 1
 100 400 l 1
 0 400 l 1
 0 600 l 1
EndSplineSet
EndChar

StartChar: eight
Encoding: 56 56 19
Width: 400
Flags: W
LayerCount: 2
Fore
SplineSet
0 500 m 1
 100 500 l 1
 100 400 l 1
 0 400 l 1
 0 500 l 1
200 500 m 1
 300 500 l 1
 300 400 l 1
 200 400 l 1
 200 500 l 1
100 600 m 1
 200 600 l 1
 200 500 l 1
 100 500 l 1
 100 600 l 1
100 400 m 1
 200 400 l 1
 200 300 l 1
 100 300 l 1
 100 400 l 1
100 100 m 1
 200 100 l 1
 200 0 l 1
 100 0 l 1
 100 100 l 1
0 300 m 1
 100 300 l 1
 100 100 l 1
 0 100 l 1
 0 300 l 1
200 300 m 1
 300 300 l 1
 300 100 l 1
 200 100 l 1
 200 300 l 1
EndSplineSet
EndChar

StartChar: nine
Encoding: 57 57 20
Width: 400
Flags: W
LayerCount: 2
Fore
SplineSet
200 500 m 1
 300 500 l 1
 300 100 l 1
 200 100 l 1
 200 200 l 1
 100 200 l 1
 100 300 l 1
 200 300 l 1
 200 500 l 1
100 600 m 1
 200 600 l 1
 200 500 l 1
 100 500 l 1
 100 600 l 1
0 100 m 1
 200 100 l 1
 200 0 l 1
 0 0 l 1
 0 100 l 1
0 500 m 1
 100 500 l 1
 100 300 l 1
 0 300 l 1
 0 500 l 1
EndSplineSet
EndChar

StartChar: question
Encoding: 63 63 21
Width: 500
Flags: W
LayerCount: 2
Fore
SplineSet
100 500 m 1
 200 500 l 1
 200 400 l 1
 100 400 l 1
 100 500 l 1
200 302 m 1
 300 302 l 1
 300 202 l 1
 200 202 l 1
 200 302 l 1
200 100 m 1
 300 100 l 1
 300 0 l 1
 200 0 l 1
 200 100 l 1
200 600 m 1
 300 600 l 1
 300 500 l 1
 200 500 l 1
 200 600 l 1
300 500 m 1
 400 500 l 1
 400 300 l 1
 300 300 l 1
 300 500 l 1
EndSplineSet
EndChar

StartChar: A
Encoding: 65 65 22
Width: 600
Flags: W
LayerCount: 2
Fore
SplineSet
300 600 m 1
 300 400 l 1
 200 400 l 1
 200 500 l 1
 100 500 l 1
 100 600 l 1
 300 600 l 1
300 400 m 1
 400 400 l 1
 400 200 l 1
 100 200 l 1
 100 400 l 1
 200 400 l 1
 200 300 l 1
 300 300 l 1
 300 400 l 1
0 0 m 1
 0 200 l 1
 100 200 l 1
 100 100 l 1
 200 100 l 1
 200 0 l 1
 0 0 l 1
400 200 m 1
 500 200 l 1
 500 0 l 1
 300 0 l 1
 300 100 l 1
 400 100 l 1
 400 200 l 1
EndSplineSet
EndChar

StartChar: B
Encoding: 66 66 23
Width: 600
Flags: W
LayerCount: 2
Fore
SplineSet
200 400 m 1
 400 400 l 1
 400 300 l 1
 200 300 l 1
 200 100 l 1
 400 100 l 1
 400 0 l 1
 0 0 l 1
 0 100 l 1
 100 100 l 1
 100 500 l 1
 0 500 l 1
 0 600 l 1
 400 600 l 1
 400 500 l 1
 200 500 l 1
 200 400 l 1
500 400 m 1
 400 400 l 1
 400 500 l 1
 500 500 l 1
 500 400 l 1
500 100 m 1
 400 100 l 1
 400 300 l 1
 500 300 l 1
 500 100 l 1
EndSplineSet
EndChar

StartChar: C
Encoding: 67 67 24
Width: 400
Flags: W
LayerCount: 2
Fore
SplineSet
300 400 m 1
 200 400 l 1
 200 500 l 1
 100 500 l 1
 100 100 l 1
 0 100 l 1
 0 600 l 1
 300 600 l 1
 300 400 l 1
300 0 m 1
 100 0 l 1
 100 100 l 1
 300 100 l 1
 300 0 l 1
EndSplineSet
EndChar

StartChar: D
Encoding: 68 68 25
Width: 600
Flags: W
LayerCount: 2
Fore
SplineSet
200 500 m 1
 200 100 l 1
 400 100 l 1
 400 0 l 1
 0 0 l 1
 0 100 l 1
 100 100 l 1
 100 500 l 1
 0 500 l 1
 0 600 l 1
 400 600 l 1
 400 500 l 1
 200 500 l 1
400 500 m 1
 500 500 l 1
 500 100 l 1
 400 100 l 1
 400 500 l 1
EndSplineSet
EndChar

StartChar: E
Encoding: 69 69 26
Width: 600
Flags: W
LayerCount: 2
Fore
SplineSet
0 600 m 1
 500 600 l 1
 500 400 l 1
 400 400 l 1
 400 500 l 1
 200 500 l 1
 200 400 l 1
 300 400 l 1
 300 300 l 1
 200 300 l 1
 200 100 l 1
 400 100 l 1
 400 200 l 1
 500 200 l 1
 500 0 l 1
 0 0 l 1
 0 100 l 1
 100 100 l 1
 100 500 l 1
 0 500 l 1
 0 600 l 1
EndSplineSet
EndChar

StartChar: F
Encoding: 70 70 27
Width: 600
Flags: W
LayerCount: 2
Fore
SplineSet
0 600 m 1
 500 600 l 1
 500 400 l 1
 400 400 l 1
 400 500 l 1
 200 500 l 1
 200 400 l 1
 300 400 l 1
 300 300 l 1
 200 300 l 1
 200 100 l 1
 300 100 l 1
 300 0 l 1
 0 0 l 1
 0 100 l 1
 100 100 l 1
 100 500 l 1
 0 500 l 1
 0 600 l 1
EndSplineSet
EndChar

StartChar: G
Encoding: 71 71 28
Width: 500
Flags: W
LayerCount: 2
Fore
SplineSet
200 300 m 1
 400 300 l 1
 400 200 l 1
 300 200 l 1
 300 0 l 1
 100 0 l 1
 100 100 l 1
 200 100 l 1
 200 300 l 1
300 500 m 1
 100 500 l 1
 100 100 l 1
 0 100 l 1
 0 600 l 1
 300 600 l 1
 300 500 l 1
EndSplineSet
EndChar

StartChar: H
Encoding: 72 72 29
Width: 600
Flags: W
LayerCount: 2
Fore
SplineSet
400 600 m 1
 500 600 l 1
 500 0 l 1
 400 0 l 1
 400 300 l 1
 200 300 l 1
 200 100 l 1
 300 100 l 1
 300 0 l 1
 0 0 l 1
 0 100 l 1
 100 100 l 1
 100 500 l 1
 0 500 l 1
 0 600 l 1
 300 600 l 1
 300 500 l 1
 200 500 l 1
 200 400 l 1
 400 400 l 1
 400 600 l 1
EndSplineSet
EndChar

StartChar: I
Encoding: 73 73 30
Width: 400
Flags: W
LayerCount: 2
Fore
SplineSet
0 600 m 1
 300 600 l 1
 300 500 l 1
 200 500 l 1
 200 100 l 1
 300 100 l 1
 300 0 l 1
 0 0 l 1
 0 100 l 1
 100 100 l 1
 100 500 l 1
 0 500 l 1
 0 600 l 1
EndSplineSet
EndChar

StartChar: J
Encoding: 74 74 31
Width: 500
Flags: W
LayerCount: 2
Fore
SplineSet
100 0 m 1
 100 100 l 1
 200 100 l 1
 200 0 l 1
 100 0 l 1
100 600 m 1
 400 600 l 1
 400 500 l 1
 300 500 l 1
 300 100 l 1
 200 100 l 1
 200 500 l 1
 100 500 l 1
 100 600 l 1
0 300 m 1
 100 300 l 1
 100 100 l 1
 0 100 l 1
 0 300 l 1
EndSplineSet
EndChar

StartChar: K
Encoding: 75 75 32
Width: 601
Flags: W
LayerCount: 2
Fore
SplineSet
400 500 m 1
 400 400 l 1
 300 400 l 1
 300 600 l 1
 500 600 l 1
 500 500 l 1
 400 500 l 1
200 400 m 1
 300 400 l 1
 300 300 l 1
 400 300 l 1
 400 100 l 1
 500 100 l 1
 500 0 l 1
 300 0 l 1
 300 200 l 1
 200 200 l 1
 200 0 l 1
 0 0 l 1
 0 100 l 1
 100 100 l 1
 100 500 l 1
 0 500 l 1
 0 600 l 1
 200 600 l 1
 200 400 l 1
EndSplineSet
EndChar

StartChar: L
Encoding: 76 76 33
Width: 600
Flags: W
LayerCount: 2
Fore
SplineSet
400 200 m 1
 500 200 l 1
 500 0 l 1
 0 0 l 1
 0 100 l 1
 100 100 l 1
 100 500 l 1
 0 500 l 1
 0 600 l 1
 300 600 l 1
 300 500 l 1
 200 500 l 1
 200 100 l 1
 400 100 l 1
 400 200 l 1
EndSplineSet
EndChar

StartChar: M
Encoding: 77 77 34
Width: 600
Flags: W
LayerCount: 2
Fore
SplineSet
0 600 m 1
 200 600 l 1
 200 300 l 1
 100 300 l 1
 100 100 l 1
 200 100 l 1
 200 0 l 1
 0 0 l 1
 0 600 l 1
300 600 m 1
 500 600 l 1
 500 0 l 1
 300 0 l 1
 300 100 l 1
 400 100 l 1
 400 300 l 1
 300 300 l 1
 300 600 l 1
200 200 m 1
 200 300 l 1
 300 300 l 1
 300 200 l 1
 200 200 l 1
EndSplineSet
EndChar

StartChar: N
Encoding: 78 78 35
Width: 600
Flags: W
LayerCount: 2
Fore
SplineSet
200 300 m 1
 200 100 l 1
 300 100 l 1
 300 0 l 1
 0 0 l 1
 0 100 l 1
 100 100 l 1
 100 500 l 1
 0 500 l 1
 0 600 l 1
 200 600 l 1
 200 500 l 1
 300 500 l 1
 300 300 l 1
 200 300 l 1
300 600 m 1
 500 600 l 1
 500 0 l 1
 400 0 l 1
 400 100 l 1
 300 100 l 1
 300 300 l 1
 400 300 l 1
 400 500 l 1
 300 500 l 1
 300 600 l 1
EndSplineSet
EndChar

StartChar: O
Encoding: 79 79 36
Width: 500
Flags: W
LayerCount: 2
Fore
SplineSet
0 500 m 1
 100 500 l 1
 100 100 l 1
 0 100 l 1
 0 500 l 1
300 600 m 1
 300 500 l 1
 100 500 l 1
 100 600 l 1
 300 600 l 1
300 500 m 1
 400 500 l 1
 400 100 l 1
 300 100 l 1
 300 500 l 1
100 0 m 1
 100 100 l 1
 300 100 l 1
 300 0 l 1
 100 0 l 1
EndSplineSet
EndChar

StartChar: P
Encoding: 80 80 37
Width: 600
Flags: W
LayerCount: 2
Fore
SplineSet
200 500 m 1
 200 300 l 1
 400 300 l 1
 400 200 l 1
 200 200 l 1
 200 100 l 1
 300 100 l 1
 300 0 l 1
 0 0 l 1
 0 100 l 1
 100 100 l 1
 100 500 l 1
 0 500 l 1
 0 600 l 1
 400 600 l 1
 400 500 l 1
 200 500 l 1
400 500 m 1
 500 500 l 1
 500 300 l 1
 400 300 l 1
 400 500 l 1
EndSplineSet
EndChar

StartChar: Q
Encoding: 81 81 38
Width: 500
Flags: W
LayerCount: 2
Fore
SplineSet
0 500 m 1
 100 500 l 1
 100 100 l 1
 0 100 l 1
 0 500 l 1
300 600 m 1
 300 500 l 1
 100 500 l 1
 100 600 l 1
 300 600 l 1
400 100 m 1
 300 100 l 1
 300 500 l 1
 400 500 l 1
 400 100 l 1
100 100 m 1
 300 100 l 1
 300 0 l 1
 400 0 l 1
 400 -100 l 1
 200 -100 l 1
 200 0 l 1
 100 0 l 1
 100 100 l 1
EndSplineSet
EndChar

StartChar: R
Encoding: 82 82 39
Width: 600
Flags: W
LayerCount: 2
Fore
SplineSet
200 300 m 1
 400 300 l 1
 400 200 l 1
 200 200 l 1
 200 100 l 1
 300 100 l 1
 300 0 l 1
 0 0 l 1
 0 100 l 1
 100 100 l 1
 100 500 l 1
 0 500 l 1
 0 600 l 1
 400 600 l 1
 400 500 l 1
 200 500 l 1
 200 300 l 1
500 0 m 1
 400 0 l 1
 400 200 l 1
 500 200 l 1
 500 0 l 1
500 300 m 1
 400 300 l 1
 400 500 l 1
 500 500 l 1
 500 300 l 1
EndSplineSet
EndChar

StartChar: S
Encoding: 83 83 40
Width: 400
Flags: W
LayerCount: 2
Fore
SplineSet
300 500 m 1
 100 500 l 1
 100 400 l 1
 0 400 l 1
 0 600 l 1
 300 600 l 1
 300 500 l 1
200 300 m 1
 100 300 l 1
 100 400 l 1
 200 400 l 1
 200 300 l 1
100 100 m 1
 200 100 l 1
 200 300 l 1
 300 300 l 1
 300 0 l 1
 0 0 l 1
 0 200 l 1
 100 200 l 1
 100 100 l 1
EndSplineSet
EndChar

StartChar: T
Encoding: 84 84 41
Width: 600
Flags: W
CounterMasks: 1 00
LayerCount: 2
Fore
SplineSet
0 600 m 1
 500 600 l 1
 500 400 l 1
 400 400 l 1
 400 500 l 1
 300 500 l 1
 300 100 l 1
 400 100 l 1
 400 0 l 1
 100 0 l 1
 100 100 l 1
 200 100 l 1
 200 500 l 1
 100 500 l 1
 100 400 l 1
 0 400 l 1
 0 600 l 1
EndSplineSet
EndChar

StartChar: U
Encoding: 85 85 42
Width: 500
Flags: W
LayerCount: 2
Fore
SplineSet
-100 600 m 1
 100 600 l 1
 100 100 l 1
 0 100 l 1
 0 500 l 1
 -100 500 l 1
 -100 600 l 1
200 600 m 1
 400 600 l 1
 400 100 l 1
 300 100 l 1
 300 500 l 1
 200 500 l 1
 200 600 l 1
100 0 m 1
 100 100 l 1
 300 100 l 1
 300 0 l 1
 100 0 l 1
EndSplineSet
EndChar

StartChar: V
Encoding: 86 86 43
Width: 600
Flags: W
LayerCount: 2
Fore
SplineSet
200 500 m 1
 100 500 l 1
 100 400 l 1
 0 400 l 1
 0 600 l 1
 200 600 l 1
 200 500 l 1
100 400 m 1
 200 400 l 1
 200 100 l 1
 100 100 l 1
 100 400 l 1
300 100 m 1
 300 400 l 1
 400 400 l 1
 400 100 l 1
 300 100 l 1
200 0 m 1
 200 100 l 1
 300 100 l 1
 300 0 l 1
 200 0 l 1
300 600 m 1
 500 600 l 1
 500 400 l 1
 400 400 l 1
 400 500 l 1
 300 500 l 1
 300 600 l 1
EndSplineSet
EndChar

StartChar: W
Encoding: 87 87 44
Width: 600
Flags: W
LayerCount: 2
Fore
SplineSet
200 500 m 1
 100 500 l 1
 100 100 l 1
 0 100 l 1
 0 600 l 1
 200 600 l 1
 200 500 l 1
100 0 m 1
 100 100 l 1
 200 100 l 1
 200 0 l 1
 100 0 l 1
200 400 m 1
 300 400 l 1
 300 100 l 1
 200 100 l 1
 200 400 l 1
300 0 m 1
 300 100 l 1
 400 100 l 1
 400 0 l 1
 300 0 l 1
300 600 m 1
 500 600 l 1
 500 100 l 1
 400 100 l 1
 400 500 l 1
 300 500 l 1
 300 600 l 1
EndSplineSet
EndChar

StartChar: X
Encoding: 88 88 45
Width: 600
Flags: W
LayerCount: 2
Fore
SplineSet
100 100 m 1
 100 200 l 1
 200 200 l 1
 200 0 l 1
 0 0 l 1
 0 100 l 1
 100 100 l 1
500 0 m 1
 300 0 l 1
 300 200 l 1
 400 200 l 1
 400 100 l 1
 500 100 l 1
 500 0 l 1
200 400 m 1
 300 400 l 1
 300 200 l 1
 200 200 l 1
 200 400 l 1
400 500 m 1
 400 400 l 1
 300 400 l 1
 300 600 l 1
 500 600 l 1
 500 500 l 1
 400 500 l 1
0 600 m 1
 200 600 l 1
 200 400 l 1
 100 400 l 1
 100 500 l 1
 0 500 l 1
 0 600 l 1
EndSplineSet
EndChar

StartChar: Y
Encoding: 89 89 46
Width: 600
Flags: W
LayerCount: 2
Fore
SplineSet
200 500 m 1
 100 500 l 1
 100 400 l 1
 0 400 l 1
 0 600 l 1
 200 600 l 1
 200 500 l 1
300 600 m 1
 500 600 l 1
 500 400 l 1
 400 400 l 1
 400 500 l 1
 300 500 l 1
 300 600 l 1
300 300 m 1
 300 400 l 1
 400 400 l 1
 400 300 l 1
 300 300 l 1
100 400 m 1
 200 400 l 1
 200 300 l 1
 100 300 l 1
 100 400 l 1
200 100 m 1
 200 300 l 1
 300 300 l 1
 300 100 l 1
 400 100 l 1
 400 0 l 1
 100 0 l 1
 100 100 l 1
 200 100 l 1
EndSplineSet
EndChar

StartChar: Z
Encoding: 90 90 47
Width: 500
Flags: W
LayerCount: 2
Fore
SplineSet
400 600 m 1
 400 400 l 1
 300 400 l 1
 300 500 l 1
 100 500 l 1
 100 400 l 1
 0 400 l 1
 0 600 l 1
 400 600 l 1
300 400 m 1
 300 300 l 1
 200 300 l 1
 200 400 l 1
 300 400 l 1
200 300 m 1
 200 200 l 1
 100 200 l 1
 100 300 l 1
 200 300 l 1
0 200 m 1
 100 200 l 1
 100 100 l 1
 300 100 l 1
 300 200 l 1
 400 200 l 1
 400 0 l 1
 0 0 l 1
 0 200 l 1
EndSplineSet
EndChar

StartChar: a
Encoding: 97 97 48
Width: 500
Flags: W
LayerCount: 2
Fore
SplineSet
300 100 m 1
 400 100 l 1
 400 0 l 1
 0 0 l 1
 0 200 l 1
 200 200 l 1
 200 300 l 1
 100 300 l 1
 100 400 l 1
 300 400 l 1
 300 100 l 1
EndSplineSet
EndChar

StartChar: b
Encoding: 98 98 49
Width: 600
Flags: W
LayerCount: 2
Fore
SplineSet
200 300 m 1
 200 100 l 1
 400 100 l 1
 400 0 l 1
 0 0 l 1
 0 100 l 1
 100 100 l 1
 100 500 l 1
 0 500 l 1
 0 600 l 1
 200 600 l 1
 200 400 l 1
 400 400 l 1
 400 300 l 1
 200 300 l 1
400 300 m 1
 500 300 l 1
 500 100 l 1
 400 100 l 1
 400 300 l 1
EndSplineSet
EndChar

StartChar: c
Encoding: 99 99 50
Width: 400
Flags: W
LayerCount: 2
Fore
SplineSet
0 400 m 1
 300 400 l 1
 300 300 l 1
 100 300 l 1
 100 100 l 1
 300 100 l 1
 300 0 l 1
 0 0 l 1
 0 400 l 1
EndSplineSet
EndChar

StartChar: d
Encoding: 100 100 51
Width: 500
Flags: W
LayerCount: 2
Fore
SplineSet
0 300 m 1
 100 300 l 1
 100 100 l 1
 0 100 l 1
 0 300 l 1
200 600 m 1
 400 600 l 1
 400 0 l 1
 100 0 l 1
 100 100 l 1
 300 100 l 1
 300 300 l 1
 100 300 l 1
 100 400 l 1
 300 400 l 1
 300 500 l 1
 200 500 l 1
 200 600 l 1
EndSplineSet
EndChar

StartChar: e
Encoding: 101 101 52
Width: 400
Flags: W
LayerCount: 2
Fore
SplineSet
300 200 m 1
 100 200 l 1
 100 100 l 1
 0 100 l 1
 0 300 l 1
 100 300 l 1
 100 400 l 1
 300 400 l 1
 300 200 l 1
300 0 m 1
 100 0 l 1
 100 100 l 1
 300 100 l 1
 300 0 l 1
EndSplineSet
EndChar

StartChar: f
Encoding: 102 102 53
Width: 400
Flags: W
LayerCount: 2
Fore
SplineSet
300 600 m 1
 300 500 l 1
 200 500 l 1
 200 600 l 1
 300 600 l 1
100 500 m 1
 200 500 l 1
 200 400 l 1
 300 400 l 1
 300 300 l 1
 200 300 l 1
 200 100 l 1
 300 100 l 1
 300 0 l 1
 0 0 l 1
 0 100 l 1
 100 100 l 1
 100 300 l 1
 0 300 l 1
 0 400 l 1
 100 400 l 1
 100 500 l 1
EndSplineSet
EndChar

StartChar: g
Encoding: 103 103 54
Width: 500
Flags: W
LayerCount: 2
Fore
SplineSet
0 300 m 1
 100 300 l 1
 100 100 l 1
 0 100 l 1
 0 300 l 1
100 400 m 1
 400 400 l 1
 400 -100 l 1
 300 -100 l 1
 300 0 l 1
 100 0 l 1
 100 100 l 1
 300 100 l 1
 300 300 l 1
 100 300 l 1
 100 400 l 1
100 -200 m 1
 100 -100 l 1
 300 -100 l 1
 300 -200 l 1
 100 -200 l 1
EndSplineSet
EndChar

StartChar: h
Encoding: 104 104 55
Width: 600
Flags: W
LayerCount: 2
Fore
SplineSet
200 600 m 1
 200 300 l 1
 300 300 l 1
 300 200 l 1
 200 200 l 1
 200 100 l 1
 300 100 l 1
 300 0 l 1
 0 0 l 1
 0 100 l 1
 100 100 l 1
 100 500 l 1
 0 500 l 1
 0 600 l 1
 200 600 l 1
300 400 m 1
 400 400 l 1
 400 300 l 1
 300 300 l 1
 300 400 l 1
400 300 m 1
 500 300 l 1
 500 0 l 1
 400 0 l 1
 400 300 l 1
EndSplineSet
EndChar

StartChar: i
Encoding: 105 105 56
Width: 400
Flags: W
LayerCount: 2
Fore
SplineSet
200 600 m 1
 200 500 l 1
 100 500 l 1
 100 600 l 1
 200 600 l 1
200 100 m 1
 300 100 l 1
 300 0 l 1
 0 0 l 1
 0 100 l 1
 100 100 l 1
 100 300 l 1
 0 300 l 1
 0 400 l 1
 200 400 l 1
 200 100 l 1
EndSplineSet
EndChar

StartChar: j
Encoding: 106 106 57
Width: 400
Flags: W
LayerCount: 2
Fore
SplineSet
200 600 m 1
 300 600 l 1
 300 500 l 1
 200 500 l 1
 200 600 l 1
0 300 m 1
 0 400 l 1
 300 400 l 1
 300 -200 l 1
 0 -200 l 1
 0 -100 l 1
 200 -100 l 1
 200 300 l 1
 0 300 l 1
EndSplineSet
EndChar

StartChar: k
Encoding: 107 107 58
Width: 600
Flags: W
LayerCount: 2
Fore
SplineSet
300 400 m 1
 500 400 l 1
 500 300 l 1
 400 300 l 1
 400 100 l 1
 500 100 l 1
 500 0 l 1
 300 0 l 1
 300 200 l 1
 200 200 l 1
 200 0 l 1
 0 0 l 1
 0 100 l 1
 100 100 l 1
 100 500 l 1
 0 500 l 1
 0 600 l 1
 200 600 l 1
 200 300 l 1
 300 300 l 1
 300 400 l 1
EndSplineSet
EndChar

StartChar: l
Encoding: 108 108 59
Width: 400
Flags: W
LayerCount: 2
Fore
SplineSet
200 100 m 1
 300 100 l 1
 300 0 l 1
 0 0 l 1
 0 100 l 1
 100 100 l 1
 100 500 l 1
 0 500 l 1
 0 600 l 1
 200 600 l 1
 200 100 l 1
EndSplineSet
EndChar

StartChar: m
Encoding: 109 109 60
Width: 600
Flags: W
LayerCount: 2
Fore
SplineSet
0 400 m 1
 200 400 l 1
 200 300 l 1
 100 300 l 1
 100 0 l 1
 0 0 l 1
 0 400 l 1
200 0 m 1
 200 300 l 1
 300 300 l 1
 300 0 l 1
 200 0 l 1
300 400 m 1
 400 400 l 1
 400 300 l 1
 300 300 l 1
 300 400 l 1
400 300 m 1
 500 300 l 1
 500 0 l 1
 400 0 l 1
 400 300 l 1
EndSplineSet
EndChar

StartChar: n
Encoding: 110 110 61
Width: 500
Flags: W
LayerCount: 2
Fore
SplineSet
0 400 m 1
 300 400 l 1
 300 300 l 1
 200 300 l 1
 200 0 l 1
 0 0 l 1
 0 100 l 1
 100 100 l 1
 100 300 l 1
 0 300 l 1
 0 400 l 1
300 300 m 1
 400 300 l 1
 400 0 l 1
 300 0 l 1
 300 300 l 1
EndSplineSet
EndChar

StartChar: o
Encoding: 111 111 62
Width: 500
Flags: W
LayerCount: 2
Fore
SplineSet
0 300 m 1
 100 300 l 1
 100 100 l 1
 0 100 l 1
 0 300 l 1
300 400 m 1
 300 300 l 1
 100 300 l 1
 100 400 l 1
 300 400 l 1
300 300 m 1
 400 300 l 1
 400 100 l 1
 300 100 l 1
 300 300 l 1
100 0 m 1
 100 100 l 1
 300 100 l 1
 300 0 l 1
 100 0 l 1
EndSplineSet
EndChar

StartChar: p
Encoding: 112 112 63
Width: 500
Flags: W
LayerCount: 2
Fore
SplineSet
300 300 m 1
 400 300 l 1
 400 100 l 1
 300 100 l 1
 300 300 l 1
100 300 m 1
 100 100 l 1
 300 100 l 1
 300 0 l 1
 100 0 l 1
 100 -200 l 1
 -100 -200 l 1
 -100 -100 l 1
 0 -100 l 1
 0 400 l 1
 300 400 l 1
 300 300 l 1
 100 300 l 1
EndSplineSet
EndChar

StartChar: q
Encoding: 113 113 64
Width: 500
Flags: W
LayerCount: 2
Fore
SplineSet
0 300 m 1
 100 300 l 1
 100 100 l 1
 0 100 l 1
 0 300 l 1
400 300 m 1
 400 -100 l 1
 500 -100 l 1
 500 -200 l 1
 300 -200 l 1
 300 -100 l 1
 300 0 l 1
 100 0 l 1
 100 100 l 1
 300 100 l 1
 300 300 l 1
 100 300 l 1
 100 400 l 1
 400 400 l 1
 400 300 l 1
EndSplineSet
EndChar

StartChar: r
Encoding: 114 114 65
Width: 500
Flags: W
LayerCount: 2
Fore
SplineSet
0 400 m 1
 400 400 l 1
 400 300 l 1
 200 300 l 1
 200 100 l 1
 300 100 l 1
 300 0 l 1
 0 0 l 1
 0 100 l 1
 100 100 l 1
 100 300 l 1
 0 300 l 1
 0 400 l 1
EndSplineSet
EndChar

StartChar: s
Encoding: 115 115 66
Width: 300
Flags: W
LayerCount: 2
Fore
SplineSet
200 300 m 1
 100 300 l 1
 100 200 l 1
 0 200 l 1
 0 400 l 1
 200 400 l 1
 200 300 l 1
200 100 m 1
 100 100 l 1
 100 200 l 1
 200 200 l 1
 200 100 l 1
-100 0 m 1
 -100 100 l 1
 100 100 l 1
 100 0 l 1
 -100 0 l 1
EndSplineSet
EndChar

StartChar: t
Encoding: 116 116 67
Width: 500
Flags: W
LayerCount: 2
Fore
SplineSet
300 200 m 1
 400 200 l 1
 400 100 l 1
 300 100 l 1
 300 200 l 1
100 0 m 1
 100 100 l 1
 300 100 l 1
 300 0 l 1
 100 0 l 1
300 300 m 1
 100 300 l 1
 100 100 l 1
 0 100 l 1
 0 300 l 1
 -100 300 l 1
 -100 400 l 1
 0 400 l 1
 0 500 l 1
 100 500 l 1
 100 400 l 1
 300 400 l 1
 300 300 l 1
EndSplineSet
EndChar

StartChar: u
Encoding: 117 117 68
Width: 400
Flags: W
LayerCount: 2
Fore
SplineSet
-100 400 m 1
 100 400 l 1
 100 100 l 1
 0 100 l 1
 0 300 l 1
 -100 300 l 1
 -100 400 l 1
200 400 m 1
 300 400 l 1
 300 0 l 1
 100 0 l 1
 100 100 l 1
 200 100 l 1
 200 400 l 1
EndSplineSet
EndChar

StartChar: v
Encoding: 118 118 69
Width: 500
Flags: W
LayerCount: 2
Fore
SplineSet
300 400 m 1
 400 400 l 1
 400 200 l 1
 300 200 l 1
 300 400 l 1
200 400 m 1
 200 200 l 1
 300 200 l 1
 300 0 l 1
 200 0 l 1
 200 100 l 1
 100 100 l 1
 100 300 l 1
 0 300 l 1
 0 400 l 1
 200 400 l 1
EndSplineSet
EndChar

StartChar: w
Encoding: 119 119 70
Width: 600
Flags: W
LayerCount: 2
Fore
SplineSet
200 300 m 1
 100 300 l 1
 100 100 l 1
 0 100 l 1
 0 400 l 1
 200 400 l 1
 200 300 l 1
100 0 m 1
 100 100 l 1
 200 100 l 1
 200 0 l 1
 100 0 l 1
200 200 m 1
 300 200 l 1
 300 100 l 1
 200 100 l 1
 200 200 l 1
300 0 m 1
 300 100 l 1
 400 100 l 1
 400 0 l 1
 300 0 l 1
300 400 m 1
 500 400 l 1
 500 100 l 1
 400 100 l 1
 400 300 l 1
 300 300 l 1
 300 400 l 1
EndSplineSet
EndChar

StartChar: x
Encoding: 120 120 71
Width: 500
Flags: W
LayerCount: 2
Fore
SplineSet
0 0 m 1
 0 100 l 1
 100 100 l 1
 100 0 l 1
 0 0 l 1
0 400 m 1
 100 400 l 1
 100 300 l 1
 0 300 l 1
 0 400 l 1
100 300 m 1
 300 300 l 1
 300 100 l 1
 100 100 l 1
 100 300 l 1
400 400 m 1
 400 300 l 1
 300 300 l 1
 300 400 l 1
 400 400 l 1
400 0 m 1
 300 0 l 1
 300 100 l 1
 400 100 l 1
 400 0 l 1
EndSplineSet
EndChar

StartChar: y
Encoding: 121 121 72
Width: 600
Flags: W
LayerCount: 2
Fore
SplineSet
300 400 m 1
 500 400 l 1
 500 300 l 1
 400 300 l 1
 400 100 l 1
 300 100 l 1
 300 400 l 1
200 0 m 1
 200 100 l 1
 300 100 l 1
 300 0 l 1
 200 0 l 1
100 -200 m 1
 100 0 l 1
 200 0 l 1
 200 -100 l 1
 300 -100 l 1
 300 -200 l 1
 100 -200 l 1
0 400 m 1
 200 400 l 1
 200 100 l 1
 100 100 l 1
 100 300 l 1
 0 300 l 1
 0 400 l 1
EndSplineSet
EndChar

StartChar: z
Encoding: 122 122 73
Width: 500
Flags: W
LayerCount: 2
Fore
SplineSet
400 300 m 1
 300 300 l 1
 300 200 l 1
 200 200 l 1
 200 300 l 1
 100 300 l 1
 100 200 l 1
 0 200 l 1
 0 400 l 1
 400 400 l 1
 400 300 l 1
200 100 m 1
 300 100 l 1
 300 200 l 1
 400 200 l 1
 400 0 l 1
 0 0 l 1
 0 100 l 1
 100 100 l 1
 100 200 l 1
 200 200 l 1
 200 100 l 1
EndSplineSet
EndChar

StartChar: Agrave
Encoding: 192 192 74
Width: 600
Flags: W
LayerCount: 2
Fore
SplineSet
400 700 m 1
 400 600 l 1
 300 600 l 1
 300 700 l 1
 400 700 l 1
200 800 m 1
 300 800 l 1
 300 700 l 1
 200 700 l 1
 200 800 l 1
300 600 m 1
 300 400 l 1
 200 400 l 1
 200 500 l 1
 100 500 l 1
 100 600 l 1
 300 600 l 1
300 400 m 1
 400 400 l 1
 400 200 l 1
 100 200 l 1
 100 400 l 1
 200 400 l 1
 200 300 l 1
 300 300 l 1
 300 400 l 1
0 0 m 1
 0 200 l 1
 100 200 l 1
 100 100 l 1
 200 100 l 1
 200 0 l 1
 0 0 l 1
400 200 m 1
 500 200 l 1
 500 0 l 1
 300 0 l 1
 300 100 l 1
 400 100 l 1
 400 200 l 1
EndSplineSet
EndChar

StartChar: Ccedilla
Encoding: 199 199 75
Width: 400
Flags: W
LayerCount: 2
Fore
SplineSet
300 400 m 1
 200 400 l 1
 200 500 l 1
 100 500 l 1
 100 100 l 1
 0 100 l 1
 0 600 l 1
 300 600 l 1
 300 400 l 1
0 -100 m 1
 100 -100 l 1
 100 100 l 1
 300 100 l 1
 300 0 l 1
 200 0 l 1
 200 -200 l 1
 0 -200 l 1
 0 -100 l 1
EndSplineSet
EndChar

StartChar: Egrave
Encoding: 200 200 76
Width: 600
Flags: W
LayerCount: 2
Fore
SplineSet
200 800 m 1
 300 800 l 1
 300 700 l 1
 200 700 l 1
 200 800 l 1
500 400 m 1
 400 400 l 1
 400 500 l 1
 200 500 l 1
 200 400 l 1
 300 400 l 1
 300 300 l 1
 200 300 l 1
 200 100 l 1
 400 100 l 1
 400 200 l 1
 500 200 l 1
 500 0 l 1
 0 0 l 1
 0 100 l 1
 100 100 l 1
 100 500 l 1
 0 500 l 1
 0 600 l 1
 300 600 l 1
 300 700 l 1
 400 700 l 1
 400 600 l 1
 500 600 l 1
 500 400 l 1
EndSplineSet
EndChar

StartChar: Eacute
Encoding: 201 201 77
Width: 600
Flags: W
LayerCount: 2
Fore
SplineSet
400 800 m 1
 400 700 l 1
 300 700 l 1
 300 800 l 1
 400 800 l 1
500 400 m 1
 400 400 l 1
 400 500 l 1
 200 500 l 1
 200 400 l 1
 300 400 l 1
 300 300 l 1
 200 300 l 1
 200 100 l 1
 400 100 l 1
 400 200 l 1
 500 200 l 1
 500 0 l 1
 0 0 l 1
 0 100 l 1
 100 100 l 1
 100 500 l 1
 0 500 l 1
 0 600 l 1
 200 600 l 1
 200 700 l 1
 300 700 l 1
 300 600 l 1
 500 600 l 1
 500 400 l 1
EndSplineSet
EndChar

StartChar: Ecircumflex
Encoding: 202 202 78
Width: 600
Flags: W
LayerCount: 2
Fore
SplineSet
500 400 m 1
 400 400 l 1
 400 500 l 1
 200 500 l 1
 200 400 l 1
 300 400 l 1
 300 300 l 1
 200 300 l 1
 200 100 l 1
 400 100 l 1
 400 200 l 1
 500 200 l 1
 500 0 l 1
 0 0 l 1
 0 100 l 1
 100 100 l 1
 100 500 l 1
 0 500 l 1
 0 600 l 1
 100 600 l 1
 100 700 l 1
 200 700 l 1
 200 600 l 1
 300 600 l 1
 300 700 l 1
 400 700 l 1
 400 600 l 1
 500 600 l 1
 500 400 l 1
300 800 m 1
 300 700 l 1
 200 700 l 1
 200 800 l 1
 300 800 l 1
EndSplineSet
EndChar

StartChar: Icircumflex
Encoding: 206 206 79
Width: 400
Flags: W
LayerCount: 2
Fore
SplineSet
200 800 m 1
 200 700 l 1
 100 700 l 1
 100 800 l 1
 200 800 l 1
300 500 m 1
 200 500 l 1
 200 100 l 1
 300 100 l 1
 300 0 l 1
 0 0 l 1
 0 100 l 1
 100 100 l 1
 100 500 l 1
 0 500 l 1
 0 700 l 1
 100 700 l 1
 100 600 l 1
 200 600 l 1
 200 700 l 1
 300 700 l 1
 300 500 l 1
EndSplineSet
EndChar

StartChar: Uacute
Encoding: 218 218 80
Width: 500
Flags: W
LayerCount: 2
Fore
SplineSet
-100 600 m 1
 100 600 l 1
 100 100 l 1
 0 100 l 1
 0 500 l 1
 -100 500 l 1
 -100 600 l 1
300 600 m 1
 400 600 l 1
 400 100 l 1
 300 100 l 1
 300 500 l 1
 200 500 l 1
 200 700 l 1
 300 700 l 1
 300 600 l 1
100 0 m 1
 100 100 l 1
 300 100 l 1
 300 0 l 1
 100 0 l 1
100 800 m 1
 200 800 l 1
 200 700 l 1
 100 700 l 1
 100 800 l 1
EndSplineSet
EndChar

StartChar: agrave
Encoding: 224 224 81
Width: 500
Flags: W
LayerCount: 2
Fore
SplineSet
100 400 m 1
 300 400 l 1
 300 100 l 1
 400 100 l 1
 400 0 l 1
 0 0 l 1
 0 200 l 1
 200 200 l 1
 200 300 l 1
 100 300 l 1
 100 400 l 1
200 600 m 1
 300 600 l 1
 300 500 l 1
 200 500 l 1
 200 600 l 1
400 500 m 1
 400 400 l 1
 300 400 l 1
 300 500 l 1
 400 500 l 1
EndSplineSet
EndChar

StartChar: ccedilla
Encoding: 231 231 82
Width: 400
Flags: W
LayerCount: 2
Fore
SplineSet
0 400 m 1
 300 400 l 1
 300 300 l 1
 100 300 l 1
 100 100 l 1
 300 100 l 1
 300 0 l 1
 200 0 l 1
 200 -200 l 1
 0 -200 l 1
 0 -100 l 1
 100 -100 l 1
 100 0 l 1
 0 0 l 1
 0 400 l 1
EndSplineSet
EndChar

StartChar: egrave
Encoding: 232 232 83
Width: 400
Flags: W
LayerCount: 2
Fore
SplineSet
300 0 m 1
 100 0 l 1
 100 100 l 1
 300 100 l 1
 300 0 l 1
100 600 m 1
 200 600 l 1
 200 500 l 1
 100 500 l 1
 100 600 l 1
300 200 m 1
 100 200 l 1
 100 100 l 1
 0 100 l 1
 0 300 l 1
 100 300 l 1
 100 400 l 1
 200 400 l 1
 200 500 l 1
 300 500 l 1
 300 200 l 1
EndSplineSet
EndChar

StartChar: eacute
Encoding: 233 233 84
Width: 400
Flags: W
LayerCount: 2
Fore
SplineSet
300 200 m 1
 100 200 l 1
 100 100 l 1
 0 100 l 1
 0 300 l 1
 100 300 l 1
 100 400 l 1
 300 400 l 1
 300 200 l 1
300 0 m 1
 100 0 l 1
 100 100 l 1
 300 100 l 1
 300 0 l 1
0 500 m 1
 100 500 l 1
 100 400 l 1
 0 400 l 1
 0 500 l 1
200 600 m 1
 200 500 l 1
 100 500 l 1
 100 600 l 1
 200 600 l 1
EndSplineSet
EndChar

StartChar: ecircumflex
Encoding: 234 234 85
Width: 400
Flags: W
LayerCount: 2
Fore
SplineSet
300 0 m 1
 100 0 l 1
 100 100 l 1
 300 100 l 1
 300 0 l 1
0 500 m 1
 100 500 l 1
 100 400 l 1
 0 400 l 1
 0 500 l 1
200 600 m 1
 200 500 l 1
 100 500 l 1
 100 600 l 1
 200 600 l 1
300 200 m 1
 100 200 l 1
 100 100 l 1
 0 100 l 1
 0 300 l 1
 100 300 l 1
 100 400 l 1
 200 400 l 1
 200 500 l 1
 300 500 l 1
 300 200 l 1
EndSplineSet
EndChar

StartChar: idieresis
Encoding: 239 239 86
Width: 400
Flags: W
LayerCount: 2
Fore
SplineSet
100 600 m 1
 100 500 l 1
 0 500 l 1
 0 600 l 1
 100 600 l 1
200 600 m 1
 300 600 l 1
 300 500 l 1
 200 500 l 1
 200 600 l 1
200 400 m 1
 200 100 l 1
 300 100 l 1
 300 0 l 1
 0 0 l 1
 0 100 l 1
 100 100 l 1
 100 300 l 1
 0 300 l 1
 0 400 l 1
 200 400 l 1
EndSplineSet
EndChar

StartChar: ugrave
Encoding: 249 249 87
Width: 500
Flags: W
LayerCount: 2
Fore
SplineSet
0 400 m 1
 200 400 l 1
 200 100 l 1
 100 100 l 1
 100 300 l 1
 0 300 l 1
 0 400 l 1
200 600 m 1
 300 600 l 1
 300 500 l 1
 200 500 l 1
 200 600 l 1
300 500 m 1
 400 500 l 1
 400 0 l 1
 200 0 l 1
 200 100 l 1
 300 100 l 1
 300 500 l 1
EndSplineSet
EndChar

StartChar: circlemultiply
Encoding: 8855 8855 88
Width: 800
Flags: W
LayerCount: 2
Fore
SplineSet
0 400 m 1
 100 400 l 1
 100 100 l 1
 0 100 l 1
 0 400 l 1
200 500 m 1
 200 400 l 1
 100 400 l 1
 100 500 l 1
 200 500 l 1
200 400 m 1
 300 400 l 1
 300 300 l 1
 200 300 l 1
 200 400 l 1
300 200 m 1
 300 300 l 1
 400 300 l 1
 400 200 l 1
 300 200 l 1
400 300 m 1
 400 400 l 1
 500 400 l 1
 500 300 l 1
 400 300 l 1
600 400 m 1
 500 400 l 1
 500 500 l 1
 600 500 l 1
 600 400 l 1
500 600 m 1
 500 500 l 1
 200 500 l 1
 200 600 l 1
 500 600 l 1
600 400 m 1
 700 400 l 1
 700 100 l 1
 600 100 l 1
 600 400 l 1
500 0 m 1
 500 100 l 1
 600 100 l 1
 600 0 l 1
 500 0 l 1
500 100 m 1
 400 100 l 1
 400 200 l 1
 500 200 l 1
 500 100 l 1
200 100 m 1
 200 200 l 1
 300 200 l 1
 300 100 l 1
 200 100 l 1
100 100 m 1
 200 100 l 1
 200 0 l 1
 100 0 l 1
 100 100 l 1
200 -100 m 1
 200 0 l 1
 500 0 l 1
 500 -100 l 1
 200 -100 l 1
EndSplineSet
EndChar

StartChar: uni22A0
Encoding: 8864 8864 89
Width: 800
Flags: W
LayerCount: 2
Fore
SplineSet
0 600 m 1
 700 600 l 1
 700 -100 l 1
 0 -100 l 1
 0 600 l 1
100 100 m 1
 200 100 l 1
 200 0 l 1
 500 0 l 1
 500 100 l 1
 600 100 l 1
 600 400 l 1
 500 400 l 1
 500 500 l 1
 200 500 l 1
 200 400 l 1
 100 400 l 1
 100 100 l 1
400 300 m 1
 400 400 l 1
 500 400 l 1
 500 300 l 1
 400 300 l 1
400 300 m 1
 400 200 l 1
 300 200 l 1
 300 300 l 1
 400 300 l 1
300 300 m 1
 200 300 l 1
 200 400 l 1
 300 400 l 1
 300 300 l 1
300 200 m 1
 300 100 l 1
 200 100 l 1
 200 200 l 1
 300 200 l 1
400 200 m 1
 500 200 l 1
 500 100 l 1
 400 100 l 1
 400 200 l 1
EndSplineSet
EndChar

StartChar: uni25B6
Encoding: 9654 9654 90
Width: 400
Flags: W
LayerCount: 2
Fore
SplineSet
200 300 m 1
 300 300 l 1
 300 200 l 1
 200 200 l 1
 200 100 l 1
 100 100 l 1
 100 0 l 1
 0 0 l 1
 0 100 l 1
 0 200 l 1
 100 200 l 1
 100 300 l 1
 0 300 l 1
 0 500 l 1
 100 500 l 1
 100 400 l 1
 200 400 l 1
 200 300 l 1
EndSplineSet
EndChar

StartChar: uni25C0
Encoding: 9664 9664 91
Width: 400
Flags: W
LayerCount: 2
Fore
SplineSet
100 200 m 1
 0 200 l 1
 0 300 l 1
 100 300 l 1
 100 400 l 1
 200 400 l 1
 200 500 l 1
 300 500 l 1
 300 400 l 1
 300 300 l 1
 200 300 l 1
 200 200 l 1
 300 200 l 1
 300 0 l 1
 200 0 l 1
 200 100 l 1
 100 100 l 1
 100 200 l 1
EndSplineSet
EndChar
